<?xml version="1.0" standalone="no"?><!DOCTYPE svg PUBLIC "-//W3C//DTD SVG 1.1//EN" "http://www.w3.org/Graphics/SVG/1.1/DTD/svg11.dtd"><svg t="1644387856632" class="icon" viewBox="0 0 3657 1024" version="1.1" xmlns="http://www.w3.org/2000/svg" p-id="10310" xmlns:xlink="http://www.w3.org/1999/xlink" width="714.2578125" height="200"><defs><style type="text/css"></style></defs><path d="M496.128 578.925714v200.484572c-63.341714 8.777143-153.673143 10.678857-184.393143 10.678857-146.139429 0-152.868571-39.643429-152.868571-115.565714 0-74.166857 25.234286-95.597714 112.64-95.597715zM304.493714 73.142857c-45.568 0-107.885714 1.243429-186.221714 10.752l-4.096 0.877714C87.332571 92.379429 73.142857 110.884571 73.142857 138.24v31.597714c0 32.548571 20.992 53.540571 53.613714 53.540572h177.737143c137.947429 0 191.634286 34.816 191.634286 124.196571v82.651429h-224.548571C83.748571 430.153143 0 505.490286 0 674.450286c0 187.830857 86.601143 264.411429 298.788571 264.411428 84.772571 0 241.005714-6.582857 299.154286-24.429714 36.864-10.24 55.588571-34.523429 55.588572-72.192v-503.222857c0-178.980571-114.176-265.947429-348.964572-265.947429zM2245.266286 83.236571h-50.176a51.785143 51.785143 0 0 0-53.613715 53.540572v651.922286h-198.729142c-121.344 0-171.52 0-171.52-204.507429V136.777143a51.858286 51.858286 0 0 0-53.613715-53.540572h-48.786285c-31.378286 0-55.003429 23.04-55.003429 53.540572v447.414857c0 299.885714 114.102857 354.742857 338.870857 354.742857 80.530286 0 190.756571 0 296.740572-14.994286l2.925714-0.585142c38.4-9.654857 46.445714-34.596571 46.445714-53.833143V136.777143a51.785143 51.785143 0 0 0-53.540571-53.540572M2871.076571 85.284571l-4.534857-1.243428c-30.061714-6.290286-111.542857-10.971429-151.844571-10.971429-186.514286 0-225.645714 98.669714-225.645714 181.321143v623.689143c0 31.085714 22.528 53.613714 53.613714 53.613714h50.176a51.858286 51.858286 0 0 0 53.613714-53.613714V265.801143c0-19.894857 0-42.422857 81.188572-42.422857l123.465142-0.219429a51.492571 51.492571 0 0 0 40.448-11.776 53.540571 53.540571 0 0 0 18.724572-41.691428v-31.451429c0-24.941714-14.701714-44.690286-39.204572-52.955429M3323.904 73.142857c-148.041143 0-232.155429 29.184-281.088 97.645714-50.468571 70.656-60.708571 180.370286-60.708571 334.555429 0 299.812571 49.371429 433.517714 341.796571 433.517714 34.523429 0 152.356571-0.731429 221.769143-9.142857a53.248 53.248 0 0 0 46.884571-53.028571v-32.987429a53.76 53.76 0 0 0-55.003428-55.003428h-213.577143c-154.624 0-180.443429-34.377143-184.466286-244.662858V473.965714c1.316571-215.478857 27.209143-250.587429 184.393143-250.587428 143.140571 0 169.472 29.696 175.030857 209.700571h-240.054857v151.625143h325.997714c32.987429 0 72.265143-11.776 72.265143-68.022857V474.697143c-4.608-307.712-82.432-401.554286-333.238857-401.554286" fill="#3F4040" p-id="10311"></path><path d="M1458.029714 109.421714c-8.045714-17.334857-25.307429-27.648-46.006857-27.648h-64.512c-22.308571 0-39.716571 9.362286-48.274286 25.526857L1199.542857 253.147429l96.109714 131.803428 153.673143-221.037714c19.748571-23.990857 12.653714-46.08 8.777143-54.491429" fill="#74BB11" p-id="10312"></path><path d="M953.051429 105.545143l-0.292572-0.292572a57.270857 57.270857 0 0 0-48.274286-23.478857h-63.122285a49.298286 49.298286 0 0 0-45.202286 25.6c-8.777143 16.676571-7.168 36.498286 4.973714 54.637715l229.668572 318.902857-264.923429 370.322285c-11.483429 17.334857-13.019429 36.790857-4.096 53.394286a49.152 49.152 0 0 0 45.129143 25.6h64.512a52.443429 52.443429 0 0 0 46.518857-26.331428l305.152-421.376z" fill="#009CD9" p-id="10313"></path><path d="M1489.993143 855.625143l-196.534857-270.628572-94.793143 131.218286 154.331428 206.409143 6.217143 2.779429a56.612571 56.612571 0 0 0 22.674286 4.900571h63.122286a50.176 50.176 0 0 0 43.958857-23.405714 51.565714 51.565714 0 0 0 1.024-51.273143" fill="#EB2084" p-id="10314"></path></svg>