<?xml version="1.0" standalone="no"?><!DOCTYPE svg PUBLIC "-//W3C//DTD SVG 1.1//EN" "http://www.w3.org/Graphics/SVG/1.1/DTD/svg11.dtd"><svg t="1644387942117" class="icon" viewBox="0 0 4041 1024" version="1.1" xmlns="http://www.w3.org/2000/svg" p-id="26927" xmlns:xlink="http://www.w3.org/1999/xlink" width="789.2578125" height="200"><defs><style type="text/css"></style></defs><path d="M305.834667 1015.808c199.338667 0 299.008-73.728 299.008-218.453333 0-61.44-28.672-109.226667-84.650667-144.725334-36.864-23.210667-96.938667-45.056-181.589333-65.536-70.997333-19.114667-120.149333-34.133333-146.090667-46.421333-40.96-20.48-60.074667-46.421333-60.074667-76.458667 0-31.402667 15.018667-55.978667 45.056-73.728 27.306667-19.114667 65.536-27.306667 114.688-27.306666 55.978667 0 99.669333 10.922667 129.706667 32.768 27.306667 19.114667 45.056 51.882667 54.613333 95.573333h106.496c-19.114667-147.456-114.688-219.818667-289.450666-219.818667-79.189333 0-144.725333 17.749333-193.877334 53.248-53.248 35.498667-79.189333 81.92-79.189333 141.994667s25.941333 105.130667 80.554667 137.898667c32.768 21.845333 91.477333 42.325333 174.762666 62.805333 76.458667 19.114667 126.976 34.133333 150.186667 45.056 43.690667 21.845333 66.901333 51.882667 66.901333 91.477333 0 79.189333-64.170667 120.149333-189.781333 120.149334-60.074667 0-105.130667-10.922667-135.168-32.768-30.037333-24.576-50.517333-64.170667-58.709333-120.149334H2.730667c16.384 162.474667 117.418667 244.394667 303.104 244.394667zM842.410667 996.693333V746.837333l111.957333-101.034666L1230.165333 996.693333h140.629334l-341.333334-421.888 311.296-283.989333H1196.032l-353.621333 327.68V2.730667h-109.226667V996.693333h109.226667z m907.946666 19.114667c91.477333 0 166.570667-27.306667 225.28-79.189333 47.786667-43.690667 79.189333-98.304 95.573334-166.570667h-109.226667c-17.749333 49.152-40.96 86.016-70.997333 110.592-35.498667 28.672-83.285333 43.690667-140.629334 43.690667-66.901333 0-120.149333-21.845333-158.378666-65.536-38.229333-43.690667-58.709333-105.130667-64.170667-184.32h557.056c-2.730667-122.88-30.037333-219.818667-81.92-288.085334-57.344-76.458667-143.36-114.688-256.682667-114.688-102.4 0-182.954667 36.864-243.029333 110.592-60.074667 69.632-88.746667 157.013333-88.746667 260.778667 0 114.688 30.037333 204.8 92.842667 273.066667 60.074667 65.536 141.994667 99.669333 243.029333 99.669333z m221.184-425.984h-441.002666c6.826667-69.632 28.672-124.245333 66.901333-165.205333 38.229333-40.96 88.746667-61.44 151.552-61.44 133.802667 0 208.896 75.093333 222.549333 226.645333z m587.093334 406.869333v-91.477333h-90.112c-24.576 0-42.325333-6.826667-51.882667-17.749333-10.922667-10.922667-15.018667-30.037333-15.018667-55.978667V382.293333h174.762667v-91.477333h-174.762667V62.805333L2293.76 107.861333v182.954667h-141.994667V382.293333H2293.76v449.194667c0 53.248 10.922667 92.842667 34.133333 120.149333 24.576 30.037333 66.901333 45.056 124.245334 45.056h106.496z m442.368 19.114667c87.381333 0 157.013333-23.210667 210.261333-68.266667 54.613333-46.421333 88.746667-116.053333 105.130667-206.165333h-109.226667c-16.384 121.514667-86.016 182.954667-206.165333 182.954667-70.997333 0-125.610667-25.941333-162.474667-75.093334-38.229333-49.152-55.978667-117.418667-55.978667-203.434666 0-86.016 19.114667-154.282667 57.344-204.8 39.594667-51.882667 94.208-77.824 162.474667-77.824 55.978667 0 101.034667 12.288 136.533333 39.594666 34.133333 27.306667 55.978667 68.266667 65.536 122.88h107.861334c-12.288-86.016-45.056-150.186667-99.669334-192.512-53.248-40.96-122.88-61.44-210.261333-61.44-105.130667 0-188.416 36.864-248.490667 111.957334-55.978667 68.266667-83.285333 155.648-83.285333 263.509333s27.306667 195.242667 83.285333 262.144c58.709333 70.997333 140.629333 106.496 247.125334 106.496z m552.96-19.114667V593.92c0-65.536 17.749333-121.514667 54.613333-165.205333 35.498667-43.690667 80.554667-65.536 135.168-65.536 58.709333 0 103.765333 17.749333 136.533333 53.248 30.037333 35.498667 46.421333 86.016 46.421334 151.552V996.693333h109.226666V551.594667c0-90.112-21.845333-159.744-65.536-207.530667-43.690667-49.152-107.861333-72.362667-189.781333-72.362667-47.786667 0-90.112 10.922667-128.341333 32.768-40.96 23.210667-73.728 57.344-98.304 102.4V2.730667h-109.226667V996.693333h109.226667z" p-id="26928"></path></svg>