<svg viewBox="0 0 941.31 710.69" xmlns:xlink="http://www.w3.org/1999/xlink" xmlns="http://www.w3.org/2000/svg"><defs><style>.cls-1{fill:#a5d7d3;opacity:0.8;}.cls-2{fill:#a35638;}.cls-3{fill:#a3413e;}.cls-4{fill:#6fb98f;}.cls-5{fill:#f59a00;}.cls-6{fill:#009e8f;}.cls-15,.cls-7{fill:#fff;}.cls-8{fill:#fab600;}.cls-9{fill:#e7e0d6;}.cls-10{clip-path:url(#clip-path);}.cls-11{fill:#007e97;}.cls-12{fill:#78521d;}.cls-13{fill:#ddd9d9;}.cls-14{fill:#005560;}.cls-15{opacity:0.39;}.cls-16{fill:#a3844f;}.cls-17{fill:#594218;}</style><clipPath id="clip-path"><path d="M610.53,377.89a83.61,83.61,0,0,0,3-22c0-47.2-39.3-85.46-87.76-85.46S438,308.65,438,355.85A83.43,83.43,0,0,0,441,378c24.32,18.48,53.8,24.76,84.77,24.52C555.9,402.75,586,396.45,610.53,377.89Z" class="cls-1"></path></clipPath></defs><title>log out</title><g id="Layer_2"><g id="Layer_1-2"><g id="log_out"><path d="M941.31,622.81l-12,54.63s-42.63-71.11-112.34-89.79c-110.89-26.77-177.35-15-330.95-8-113.53,10.21-253,9.21-314.47-19.78S62.8,485.22,64.39,468C94.33,502.1,155,551.84,209,561.56s109.14,9.74,126.29,6.92c-13-6.17-52.89-15-88.53-38.26s-93-87.73-87.36-118.43c8.79,21.77,23.89,51.55,48.78,73.56,27,22.48,81.24,76.31,186.85,72.06s177-18.25,244.82-20.93,122.78,2.85,138.18,2.94c-2.93-11.67-32.08-64.38-9.7-85.89,6.32,11.32,12,65.46,37,82s65.89,25.55,88.33,43.72S941.31,622.81,941.31,622.81Z" class="cls-2"></path><path d="M215.7,573s-32.4,25.06-56,30.94c-22.89,7.58-67.35-2.74-67.2-6.74,11.6.72,46.73,3,63.45-2.91s45.75-25.67,45.75-25.67Z" class="cls-2"></path><path d="M680.21,439.46s11.73,30.59,24.65,39.42,32.7,10.44,38,4.42-.62-28.66-17-36.54S680.21,439.46,680.21,439.46Z" class="cls-3"></path><path d="M89.82,463s25.81,20.19,41.45,21.09,33.4-7.92,34.88-15.82-15.3-24.25-33.41-22.55S89.82,463,89.82,463Z" class="cls-4"></path><path d="M0,541.36s32.46-4.53,44-15.15,17.52-29.5,12.87-36.06-28.07-5.86-39.44,8.35S0,541.36,0,541.36Z" class="cls-4"></path><path d="M72.42,583.22S93,557.73,94.16,542.11,86.78,508.59,78.89,507,54.41,521.9,55.81,540,72.42,583.22,72.42,583.22Z" class="cls-4"></path><path d="M193.59,688.36s8.07-31.76,2.61-46.44-20.69-27.39-28.53-25.55-16,23.77-7.19,39.66S193.59,688.36,193.59,688.36Z" class="cls-4"></path><path d="M274.17,427.86s-32.72-1.55-46,6.75-22.68,25.76-19.32,33.06,26.49,10.95,40.3-.9S274.17,427.86,274.17,427.86Z" class="cls-4"></path><path d="M853.09,447.78S820.93,454,810,465.21s-16,30.39-11,36.7,28.34,4.37,38.94-10.41S853.09,447.78,853.09,447.78Z" class="cls-4"></path><path d="M930.29,650.78c-19.82-3.48-40.11-3.2-60-6.88s-39.42-10-58.23-17.73a.88.88,0,0,0,.06-.54c-4.59-13.45-13.57-29.62-25.1-38.3-.63-.47-1.6.83-1.24,1.4,3.8,6.08,8.87,11.37,13,17.29a144.84,144.84,0,0,1,10.58,19l-2.13-.87c-20.75-8.77-40.11-20.33-58.95-32.58C736.56,584,725.84,575.13,715,566.45a53.19,53.19,0,0,0-7.6-19.41c.1,0,.18,0,.28-.13,8.89-8,17.69-21,18.92-33.09.13-1.34-1.53-.52-1.83.18-2.08,4.89-3.67,9.92-6.07,14.68-3.17,6.3-7.79,11.54-12,17.11,0,0,0,.06,0,.09-4.38-6.72-10-12.49-15.88-15.43-.79-.4-2.15,1-1.55,1.73C694,538,699.65,542.77,704,549c3.1,4.47,4.95,9.46,7.08,14.31a258.4,258.4,0,0,0-23.24-16.66c-1.25-.77-3,1.66-2,2.66a435.56,435.56,0,0,0,61.79,50.19,128.54,128.54,0,0,1-12.58,21.76c-12-8.57-29.23-16-44-15.21-.53,0-1.32,1.24-.57,1.46,6.82,2,14,2.65,20.89,4.66,8.05,2.36,15.59,6.12,23,10a76.14,76.14,0,0,1-26.17,22.26c-1.59.83-1.71,4.05.55,2.87,18.35-9.56,34.62-26.39,40.58-46.62a343.55,343.55,0,0,0,49.23,27.07c10.39,4.61,21.56,9.13,33.15,13.15-4.45,8.21-9,16.06-15.1,23.25-15.23-8.08-36.6-9.76-52-1.24-.49.27-1.22,2.05-.13,1.82,8.18-1.74,15.8-4,24.25-4.1,9.22-.15,17.9,2.16,26.45,5.31h0c-7,7.72-16,12.63-23.86,19.22-.91.77-1.34,3.29.53,2.69,18.56-6.07,36.71-26.93,42.07-46.22,30.89,10.5,64.67,17.23,95.22,12C930.07,653.5,931.87,651.07,930.29,650.78Z" class="cls-4"></path><path d="M883.41,588.6c-2.64,5.58-4.52,11.09-8.19,16.2-3.38,4.68-8,8-12.46,11.53a139.27,139.27,0,0,0-28.52-63,22.85,22.85,0,0,1-5,1.47c7.27,10.14,14.38,20.11,20,31.69-23.58-3.23-41.85-9.52-59.15-27.94-1-1-3.05,1.63-2,2.75,15,16.77,38.79,30.58,62.08,27.19,7.87,17.19,9.77,34.52,12.7,53,.13.82,1.16-.17,1.2-.62a97.37,97.37,0,0,0-.93-22.41c10.85-4.4,22-18.42,22.71-30C885.9,586.59,883.84,587.7,883.41,588.6Z" class="cls-4"></path><path d="M793.55,566.9s-24.85-.95-30.68-23.63a68.76,68.76,0,0,1-1.11-26.88S803.61,531.33,793.55,566.9Z" class="cls-4"></path><path d="M807.24,676.43s-23.07-9.29-37.65,9a68.75,68.75,0,0,0-12,24.08S804.58,720.22,807.24,676.43Z" class="cls-4"></path><path d="M717,641.34s-11.41-13.92-27-7.36a49.69,49.69,0,0,0-16,11.12S700.09,668.2,717,641.34Z" class="cls-4"></path><path d="M839.42,562.75s-1.56-17.92-18.17-21.33a49.82,49.82,0,0,0-19.46.15S810.31,575.39,839.42,562.75Z" class="cls-4"></path><path d="M717.27,640.9s-21.38,4.32-23.22,24.78a60.13,60.13,0,0,0,2.83,23.42S736.45,674.25,717.27,640.9Z" class="cls-4"></path><path d="M839.05,560.21s-20.14-14.58-12.38-36.68a68.7,68.7,0,0,1,14-23S867.17,536.23,839.05,560.21Z" class="cls-4"></path><path d="M881.64,598.34S865,582.86,877,565a67.61,67.61,0,0,1,18.23-17.72S913.78,581.79,881.64,598.34Z" class="cls-4"></path><path d="M801.34,607.41s-20.08,3.51-26.39-14.74a60.73,60.73,0,0,1-2.8-22.63S812.05,574.49,801.34,607.41Z" class="cls-4"></path><path d="M700.19,539.48s-20.08,3.52-26.38-14.73A60.67,60.67,0,0,1,671,502.11S710.9,506.57,700.19,539.48Z" class="cls-4"></path><path d="M719.65,533.52S708.43,521.3,718.17,509a49.34,49.34,0,0,1,14.3-11.86S746.92,526.42,719.65,533.52Z" class="cls-4"></path><path d="M782.41,660.86s-11.63,16.75-29,8.39a60.77,60.77,0,0,1-18.06-14S766.56,630.1,782.41,660.86Z" class="cls-4"></path><path d="M713.84,612s-11.63,16.74-29,8.38a60.65,60.65,0,0,1-18.06-13.94S698,581.18,713.84,612Z" class="cls-4"></path><path d="M702,558.54s-19.34,16.08-37.28.4a75.06,75.06,0,0,1-16.88-22.52S693.28,516.75,702,558.54Z" class="cls-4"></path><path d="M507.28,424.77l-8.83-8.19V394a5.49,5.49,0,1,0-11,0v21.73a5,5,0,0,0-1.4,1.15l-7.87,9.4a5.13,5.13,0,0,0,7.86,6.58l2.28-2.72v2.3a5.13,5.13,0,0,0,10.26,0v-1.75l1.71,1.58a5.13,5.13,0,0,0,7-7.52Z" class="cls-5"></path><path d="M572.81,424.77,564,416.58V394a5.5,5.5,0,0,0-11,0v21.73a5.05,5.05,0,0,0-1.39,1.15l-7.87,9.4a5.13,5.13,0,1,0,7.86,6.58l2.28-2.72v2.3a5.13,5.13,0,0,0,10.25,0v-1.75l1.71,1.58a5.13,5.13,0,1,0,7-7.52Z" class="cls-5"></path><path d="M651.84,92.85c-6.93-2.74-36.37,29.3-36.37,29.3-35.14-12.68-65.22-16.66-89.74-16.34-24.52-.32-54.6,3.66-89.74,16.34,0,0-29.45-32-36.37-29.3s-42.16,190.39,23.67,267.76c26.9,31.62,63.51,41.6,102.44,41.29,37.87.31,75.54-9.67,102.44-41.29C694,283.24,658.77,95.58,651.84,92.85Z" class="cls-6"></path><path d="M589.6,135.28a65.69,65.69,0,0,0-63.87,50.38,65.68,65.68,0,1,0,0,30.6,65.68,65.68,0,1,0,63.87-81Z" class="cls-1"></path><path d="M545,199.37a47.93,47.93,0,1,0,47.93-47.92A47.93,47.93,0,0,0,545,199.37Z" class="cls-7"></path><path d="M506.46,199.37a47.92,47.92,0,1,1-47.92-47.92A47.92,47.92,0,0,1,506.46,199.37Z" class="cls-7"></path><polygon points="508.52 220.03 525.73 243.8 525.73 203.71 508.52 220.03" class="cls-8"></polygon><polygon points="525.73 203.71 525.73 243.8 542.94 220.03 525.73 203.71" class="cls-5"></polygon><path d="M610.53,377.89a83.61,83.61,0,0,0,3-22c0-47.2-39.3-85.46-87.76-85.46S438,308.65,438,355.85A83.43,83.43,0,0,0,441,378c24.32,18.48,53.8,24.76,84.77,24.52C555.9,402.75,586,396.45,610.53,377.89Z" class="cls-9"></path><path d="M610.53,377.89a83.61,83.61,0,0,0,3-22c0-47.2-39.3-85.46-87.76-85.46S438,308.65,438,355.85A83.43,83.43,0,0,0,441,378c24.32,18.48,53.8,24.76,84.77,24.52C555.9,402.75,586,396.45,610.53,377.89Z" class="cls-1"></path><g class="cls-10"><polygon points="490.1 305.42 474.92 305.42 482.68 313.18 490.1 305.42" class="cls-11"></polygon><polygon points="507.08 305.42 491.89 305.42 499.65 313.18 507.08 305.42" class="cls-11"></polygon><polygon points="524.04 305.42 508.86 305.42 516.62 313.18 524.04 305.42" class="cls-11"></polygon><polygon points="541.01 305.42 525.83 305.42 533.59 313.18 541.01 305.42" class="cls-11"></polygon><polygon points="557.99 305.42 542.8 305.42 550.56 313.18 557.99 305.42" class="cls-11"></polygon><polygon points="574.96 305.42 559.76 305.42 567.53 313.18 574.96 305.42" class="cls-11"></polygon><polygon points="591.92 305.42 576.73 305.42 584.5 313.18 591.92 305.42" class="cls-11"></polygon><polygon points="473.14 305.42 457.95 305.42 465.7 313.18 473.14 305.42" class="cls-11"></polygon><polygon points="498.59 295.26 483.4 295.26 491.16 303.02 498.59 295.26" class="cls-11"></polygon><polygon points="515.56 295.26 500.37 295.26 508.13 303.02 515.56 295.26" class="cls-11"></polygon><polygon points="532.53 295.26 517.35 295.26 525.11 303.02 532.53 295.26" class="cls-11"></polygon><polygon points="549.5 295.26 534.31 295.26 542.07 303.02 549.5 295.26" class="cls-11"></polygon><polygon points="566.47 295.26 551.28 295.26 559.04 303.02 566.47 295.26" class="cls-11"></polygon><polygon points="583.44 295.26 568.25 295.26 576.01 303.02 583.44 295.26" class="cls-11"></polygon><polygon points="481.62 295.26 466.43 295.26 474.19 303.02 481.62 295.26" class="cls-11"></polygon><polygon points="617.38 295.26 602.19 295.26 609.95 303.02 617.38 295.26" class="cls-12"></polygon><polygon points="481.62 274.97 466.43 274.97 474.19 282.72 481.62 274.97" class="cls-12"></polygon><polygon points="498.59 274.97 483.4 274.97 491.16 282.72 498.59 274.97" class="cls-11"></polygon><polygon points="515.56 274.97 500.37 274.97 508.13 282.72 515.56 274.97" class="cls-11"></polygon><polygon points="532.53 274.97 517.35 274.97 525.1 282.72 532.53 274.97" class="cls-11"></polygon><polygon points="549.5 274.97 534.31 274.97 542.07 282.72 549.5 274.97" class="cls-11"></polygon><polygon points="566.47 274.97 551.28 274.97 559.04 282.72 566.47 274.97" class="cls-11"></polygon><polygon points="583.44 274.97 568.25 274.97 576.01 282.72 583.44 274.97" class="cls-12"></polygon><polygon points="464.65 274.97 449.46 274.97 457.22 282.72 464.65 274.97" class="cls-12"></polygon><polygon points="617.38 274.97 602.19 274.97 609.95 282.72 617.38 274.97" class="cls-12"></polygon><polygon points="600.41 274.97 585.22 274.97 592.99 282.72 600.41 274.97" class="cls-12"></polygon><polygon points="490.1 285.11 474.92 285.11 482.68 292.88 490.1 285.11" class="cls-11"></polygon><polygon points="507.08 285.11 491.89 285.11 499.65 292.88 507.08 285.11" class="cls-11"></polygon><polygon points="524.04 285.11 508.86 285.11 516.62 292.88 524.04 285.11" class="cls-11"></polygon><polygon points="541.01 285.11 525.83 285.11 533.59 292.88 541.01 285.11" class="cls-11"></polygon><polygon points="557.99 285.11 542.8 285.11 550.56 292.88 557.99 285.11" class="cls-11"></polygon><polygon points="574.96 285.11 559.76 285.11 567.53 292.88 574.96 285.11" class="cls-11"></polygon><polygon points="473.14 285.11 457.95 285.11 465.7 292.88 473.14 285.11" class="cls-12"></polygon><polygon points="625.86 285.11 610.68 285.11 618.44 292.88 625.86 285.11" class="cls-12"></polygon><polygon points="608.89 285.11 593.71 285.11 601.47 292.88 608.89 285.11" class="cls-12"></polygon><polygon points="489.21 346.02 474.03 346.02 481.79 353.78 489.21 346.02" class="cls-11"></polygon><polygon points="506.18 346.02 491 346.02 498.76 353.78 506.18 346.02" class="cls-11"></polygon><polygon points="523.15 346.02 507.97 346.02 515.73 353.78 523.15 346.02" class="cls-11"></polygon><polygon points="540.13 346.02 524.93 346.02 532.69 353.78 540.13 346.02" class="cls-11"></polygon><polygon points="557.09 346.02 541.9 346.02 549.66 353.78 557.09 346.02" class="cls-11"></polygon><polygon points="574.06 346.02 558.88 346.02 566.64 353.78 574.06 346.02" class="cls-11"></polygon><polygon points="591.03 346.02 575.85 346.02 583.6 353.78 591.03 346.02" class="cls-11"></polygon><polygon points="472.24 346.02 457.06 346.02 464.82 353.78 472.24 346.02" class="cls-11"></polygon><polygon points="455.28 346.02 440.08 346.02 447.85 353.78 455.28 346.02" class="cls-11"></polygon><polygon points="624.97 346.02 609.79 346.02 617.54 353.78 624.97 346.02" class="cls-12"></polygon><polygon points="608 346.02 592.81 346.02 600.58 353.78 608 346.02" class="cls-11"></polygon><polygon points="447.68 335.87 432.49 335.87 440.25 343.63 447.68 335.87" class="cls-11"></polygon><polygon points="497.7 335.87 482.51 335.87 490.27 343.63 497.7 335.87" class="cls-11"></polygon><polygon points="514.67 335.87 499.48 335.87 507.24 343.63 514.67 335.87" class="cls-11"></polygon><polygon points="531.64 335.87 516.45 335.87 524.21 343.63 531.64 335.87" class="cls-11"></polygon><polygon points="548.61 335.87 533.42 335.87 541.18 343.63 548.61 335.87" class="cls-11"></polygon><polygon points="565.58 335.87 550.38 335.87 558.15 343.63 565.58 335.87" class="cls-11"></polygon><polygon points="582.55 335.87 567.36 335.87 575.12 343.63 582.55 335.87" class="cls-11"></polygon><polygon points="599.52 335.87 584.33 335.87 592.09 343.63 599.52 335.87" class="cls-11"></polygon><polygon points="480.73 335.87 465.54 335.87 473.3 343.63 480.73 335.87" class="cls-11"></polygon><polygon points="463.76 335.87 448.57 335.87 456.33 343.63 463.76 335.87" class="cls-11"></polygon><polygon points="616.49 335.87 601.3 335.87 609.06 343.63 616.49 335.87" class="cls-11"></polygon><polygon points="446.79 315.57 431.6 315.57 439.36 323.33 446.79 315.57" class="cls-12"></polygon><polygon points="480.73 315.57 465.54 315.57 473.3 323.33 480.73 315.57" class="cls-11"></polygon><polygon points="497.7 315.57 482.51 315.57 490.27 323.33 497.7 315.57" class="cls-11"></polygon><polygon points="514.67 315.57 499.49 315.57 507.24 323.33 514.67 315.57" class="cls-11"></polygon><polygon points="531.64 315.57 516.45 315.57 524.21 323.33 531.64 315.57" class="cls-11"></polygon><polygon points="548.61 315.57 533.42 315.57 541.18 323.33 548.61 315.57" class="cls-11"></polygon><polygon points="565.58 315.57 550.39 315.57 558.15 323.33 565.58 315.57" class="cls-11"></polygon><polygon points="582.55 315.57 567.36 315.57 575.12 323.33 582.55 315.57" class="cls-11"></polygon><polygon points="463.76 315.57 448.57 315.57 456.33 323.33 463.76 315.57" class="cls-11"></polygon><polygon points="599.52 315.57 584.33 315.57 592.09 323.33 599.52 315.57" class="cls-11"></polygon><polygon points="489.21 325.72 474.03 325.72 481.79 333.48 489.21 325.72" class="cls-11"></polygon><polygon points="506.18 325.72 491 325.72 498.76 333.48 506.18 325.72" class="cls-11"></polygon><polygon points="523.15 325.72 507.97 325.72 515.73 333.48 523.15 325.72" class="cls-11"></polygon><polygon points="540.13 325.72 524.93 325.72 532.69 333.48 540.13 325.72" class="cls-11"></polygon><polygon points="557.09 325.72 541.9 325.72 549.66 333.48 557.09 325.72" class="cls-11"></polygon><polygon points="574.06 325.72 558.88 325.72 566.64 333.48 574.06 325.72" class="cls-11"></polygon><polygon points="591.03 325.72 575.85 325.72 583.6 333.48 591.03 325.72" class="cls-11"></polygon><polygon points="472.24 325.72 457.06 325.72 464.82 333.48 472.24 325.72" class="cls-11"></polygon><polygon points="455.28 325.72 440.08 325.72 447.85 333.48 455.28 325.72" class="cls-11"></polygon><polygon points="624.97 325.72 609.79 325.72 617.54 333.48 624.97 325.72" class="cls-12"></polygon><polygon points="608 325.72 592.81 325.72 600.58 333.48 608 325.72" class="cls-11"></polygon><polygon points="472.25 386.62 457.06 386.62 464.82 394.38 472.25 386.62" class="cls-11"></polygon><polygon points="489.21 386.62 474.03 386.62 481.79 394.38 489.21 386.62" class="cls-11"></polygon><polygon points="506.19 386.62 491 386.62 498.76 394.38 506.19 386.62" class="cls-11"></polygon><polygon points="523.16 386.62 507.97 386.62 515.73 394.38 523.16 386.62" class="cls-11"></polygon><polygon points="540.13 386.62 524.93 386.62 532.7 394.38 540.13 386.62" class="cls-11"></polygon><polygon points="557.09 386.62 541.9 386.62 549.66 394.38 557.09 386.62" class="cls-11"></polygon><polygon points="574.07 386.62 558.88 386.62 566.64 394.38 574.07 386.62" class="cls-11"></polygon><polygon points="591.03 386.62 575.85 386.62 583.61 394.38 591.03 386.62" class="cls-11"></polygon><polygon points="615.59 376.47 600.41 376.47 608.17 384.23 615.59 376.47" class="cls-11"></polygon><polygon points="480.73 376.47 465.55 376.47 473.3 384.23 480.73 376.47" class="cls-11"></polygon><polygon points="497.7 376.47 482.51 376.47 490.27 384.23 497.7 376.47" class="cls-11"></polygon><polygon points="514.67 376.47 499.49 376.47 507.24 384.23 514.67 376.47" class="cls-11"></polygon><polygon points="531.64 376.47 516.45 376.47 524.21 384.23 531.64 376.47" class="cls-11"></polygon><polygon points="548.61 376.47 533.42 376.47 541.18 384.23 548.61 376.47" class="cls-11"></polygon><polygon points="565.58 376.47 550.39 376.47 558.15 384.23 565.58 376.47" class="cls-11"></polygon><polygon points="582.55 376.47 567.36 376.47 575.12 384.23 582.55 376.47" class="cls-11"></polygon><polygon points="463.76 376.47 448.58 376.47 456.33 384.23 463.76 376.47" class="cls-11"></polygon><polygon points="446.79 376.47 431.6 376.47 439.36 384.23 446.79 376.47" class="cls-11"></polygon><polygon points="599.52 376.47 584.33 376.47 592.09 384.23 599.52 376.47" class="cls-11"></polygon><polygon points="616.1 356.17 600.92 356.17 608.67 363.93 616.1 356.17" class="cls-11"></polygon><polygon points="463.76 356.17 448.58 356.17 456.34 363.93 463.76 356.17" class="cls-11"></polygon><polygon points="480.73 356.17 465.55 356.17 473.3 363.93 480.73 356.17" class="cls-11"></polygon><polygon points="497.7 356.17 482.51 356.17 490.27 363.93 497.7 356.17" class="cls-11"></polygon><polygon points="514.67 356.17 499.49 356.17 507.24 363.93 514.67 356.17" class="cls-11"></polygon><polygon points="531.64 356.17 516.45 356.17 524.21 363.93 531.64 356.17" class="cls-11"></polygon><polygon points="548.61 356.17 533.42 356.17 541.18 363.93 548.61 356.17" class="cls-11"></polygon><polygon points="565.58 356.17 550.39 356.17 558.15 363.93 565.58 356.17" class="cls-11"></polygon><polygon points="446.79 356.17 431.6 356.17 439.36 363.93 446.79 356.17" class="cls-11"></polygon><polygon points="599.52 356.17 584.33 356.17 592.09 363.93 599.52 356.17" class="cls-11"></polygon><polygon points="582.55 356.17 567.36 356.17 575.12 363.93 582.55 356.17" class="cls-11"></polygon><polygon points="472.25 366.32 457.06 366.32 464.82 374.08 472.25 366.32" class="cls-11"></polygon><polygon points="489.21 366.32 474.03 366.32 481.79 374.08 489.21 366.32" class="cls-11"></polygon><polygon points="506.19 366.32 491 366.32 498.76 374.08 506.19 366.32" class="cls-11"></polygon><polygon points="523.16 366.32 507.97 366.32 515.73 374.08 523.16 366.32" class="cls-11"></polygon><polygon points="540.13 366.32 524.93 366.32 532.7 374.08 540.13 366.32" class="cls-11"></polygon><polygon points="557.09 366.32 541.9 366.32 549.66 374.08 557.09 366.32" class="cls-11"></polygon><polygon points="574.07 366.32 558.88 366.32 566.64 374.08 574.07 366.32" class="cls-11"></polygon><polygon points="455.28 366.32 440.08 366.32 447.85 374.08 455.28 366.32" class="cls-11"></polygon><polygon points="624.08 366.32 608.89 366.32 616.65 374.08 624.08 366.32" class="cls-11"></polygon><polygon points="608 366.32 592.81 366.32 600.58 374.08 608 366.32" class="cls-11"></polygon><polygon points="591.03 366.32 575.85 366.32 583.61 374.08 591.03 366.32" class="cls-11"></polygon></g><path d="M722.69,147.79,680.16,130.9l-40.65,9.44-43.84-8.08-56.45,24-65.93-22.07-47.88,12.34-51.18-10.75-31.68,23.64-19.46-11.25S341.47,31.8,472.46,6.66c6.88-1.41,75.5-11.9,94.74-3.32,20.52,4.12,65.42,15,103.43,41.05,36.3,24.93,47.52,50.89,51.42,63.19C722.05,107.58,735.52,130,722.69,147.79Z" class="cls-13"></path><path d="M433.63,215.44c0-.44-.07-.88-.07-1.34a20.78,20.78,0,0,1,41.56,0c0,.46,0,.9-.07,1.34h10c0-.44.07-.88.07-1.34a30.8,30.8,0,0,0-61.6,0c0,.46,0,.9.07,1.34Z" class="cls-14"></path><path d="M576.27,215.44c0-.44-.07-.88-.07-1.34a20.78,20.78,0,0,1,41.56,0c0,.46,0,.9-.07,1.34h10c0-.44.07-.88.07-1.34a30.8,30.8,0,1,0-61.6,0c0,.46.05.9.07,1.34Z" class="cls-14"></path><path d="M391.43,379.64c2-.37,47.29-78.57,19.19-111.27S315,195,312.31,210.84s2.16,50.77,25.34,57.52-30.73,3.21-21.55,28.07,13.54,35.17,39.28,28.08,9,2.32,4.7,22.38S369.19,383.77,391.43,379.64Z" class="cls-11"></path><path d="M391.13,359.55c1.51-.28,36.34-60.37,14.75-85.5s-73.51-56.36-75.55-44.22S335,262,352.82,267.19s-26.63,9.31-19.58,28.42,16.36,20.16,36.13,14.71S375.24,321.56,372,337,374,362.73,391.13,359.55Z" class="cls-1"></path><path d="M653.19,361.68c-1.78-.89-23.91-88.53,12.09-112.26s112.1-44.27,110.32-28.35-24.79,47.86-48.93,48,37.44,11.89,21.8,33.28-22.68,30.1-45.48,16.22-9.28-.24-10.66,20.23S673.45,371.76,653.19,361.68Z" class="cls-11"></path><path d="M654.73,343.24c-1.37-.68-18.37-68,9.29-86.27s86.14-34,84.77-21.78-13.32,29.65-31.87,29.75,23.05,16.26,11,32.7-21.27,14.9-38.79,4.23-8.73,9.2-9.78,24.92S670.29,351,654.73,343.24Z" class="cls-1"></path><path d="M492.92,8.53A171.74,171.74,0,0,0,337,130.66c1.16,5.64,4.66,10.17,8.71,10.89,5.25.93,12.41-4.32,13.8-13.38a24.69,24.69,0,0,1,1.36-5.28,189.32,189.32,0,0,1,37.5-59.36C433.44,26,474.56,13.08,492.92,8.53Z" class="cls-15"></path><polygon points="323.86 144.35 342.11 155.14 373.83 130.91 423.54 143.02 473.17 130.91 537.2 151.45 592.92 126.12 638.63 136.59 680.52 127.61 722.12 143.47 722.69 147.79 680.16 130.9 639.51 140.34 595.67 132.26 539.22 156.3 471.92 134.59 425.4 146.56 374.23 135.82 342.55 159.46 323.09 148.21 323.86 144.35" class="cls-15"></polygon><path d="M558.5,8.53S704.76,25.06,721.37,135.28c0,0,.45,5.2-12.72-4.67S674.94,42.34,558.5,8.53Z" class="cls-15"></path><path d="M328.79,340.21l42.26,21.28,40.79-10.64,43.71,10.64,56.83-28,65.56,28,48.08-14,51,14,32.05-28,19.28,14S708.11,488.1,576.73,516c-6.91,1.56-75.68,12.93-94.79,2.17-20.44-5.39-65.17-19.38-102.75-51.73-35.89-30.9-46.7-62.56-50.4-77.53C328.79,388.92,315.68,361.49,328.79,340.21Z" class="cls-13"></path><path d="M327.75,357.11s-3.58,111.31,157.39,155.6c-13.17-12-108.81-53.64-126.87-110.2C346.3,382.48,361.86,359.51,327.75,357.11Z" class="cls-15"></path><polygon points="327.03 343.43 369.23 364.89 410.62 354.35 455.28 366.32 511.32 336.45 577.3 365.34 626.07 350.23 677.53 365.64 709.85 337.37 726.6 349.63 728.35 347.48 709.07 333.48 677.02 361.49 626.02 347.48 577.94 361.49 512.38 333.48 455.55 361.49 411.84 350.85 371.05 361.49 328.79 340.21 327.03 343.43" class="cls-15"></polygon><path d="M534.33,512.71s105.8,20.63,177.61-124.18c2.7-6,9.43-31.42,9.43-31.42s-9.88-10.62-17.51,15S631.4,509.26,534.33,512.71Z" class="cls-15"></path><path d="M282.91,455.63s-17.61,2.58-20.83,7.93,9.88-20,9.88-20-15.38-7.85-23.34.35,4-31.48,23-21.89,23.52,7.73,23.52,7.73,3.79-23.4,25.07-21-8.88,27.37-8.88,27.37,25.47-13.55,38-.57c-5.85,7-10.43-.15-28.44,16.28S282.91,455.63,282.91,455.63Z" class="cls-16"></path><path d="M340.49,469s-17.61,2.58-20.82,7.93,9.87-20,9.87-20-15.38-7.85-23.34.35,4-31.48,23-21.89,23.52,7.73,23.52,7.73,3.79-23.4,25.06-21-8.88,27.37-8.88,27.37,25.48-13.55,38-.57c-5.85,7-10.43-.15-28.44,16.28S340.49,469,340.49,469Z" class="cls-16"></path><path d="M272.12,454.39s65.81,123.8,279.58,108S759.44,447.07,759.44,447.07" class="cls-17"></path><ellipse transform="translate(-6.99 4.75) rotate(-0.86)" ry="25" rx="50.31" cy="467.66" cx="312.46" class="cls-16"></ellipse><path d="M444.5,465.68c2.31,15.49-18.24,34.38-37.87,38.7-30.09,6.63-64.27-19.61-62.73-37.19,1.33-15.18,29.4-25.35,49.92-25.75C412.79,441.06,442,448.7,444.5,465.68Z" class="cls-16"></path><path d="M520,464.54c3.82,15.08-6.52,33.79-19.93,41.45-11.22,6.41-22.34,3.78-31.4,1.48-21.68-5.51-51.34-24-49.27-41.42,1.92-16.19,30.43-25.35,49.93-25.75C473.55,440.22,513.72,439.9,520,464.54Z" class="cls-16"></path><path d="M600.3,463.33c3.86,18.85-21.83,47.22-49,47.91-27.71.71-54.84-27.38-51.58-46.39,3-17.67,32-25.48,49.93-25.75C567.43,438.83,596.66,445.63,600.3,463.33Z" class="cls-16"></path><path d="M676.3,467.17c2.88,14.78-17.78,33.31-38,37.38-30.4,6.1-64.6-19.4-62.56-35.87,1.74-14,30-22.73,50-23.11C643.46,445.23,673.18,451.13,676.3,467.17Z" class="cls-16"></path><path d="M755.6,458.36c2.87,14.78-17.78,33.31-38.05,37.38-30.4,6.1-64.59-19.4-62.56-35.87,1.74-14,30-22.73,50-23.11C722.75,436.42,752.47,442.32,755.6,458.36Z" class="cls-16"></path><path d="M770,458.15c2.87,14.78-17.78,33.31-38.05,37.38-30.4,6.09-64.59-19.41-62.56-35.87,1.74-14.05,30-22.74,50-23.11C737.11,436.21,766.84,442.11,770,458.15Z" class="cls-16"></path><path d="M393.82,441.44l-8.53-12.53s13-1.1,18.18,13,18.09-7.42,18.09-7.42,14.94-5.47,11.82,2.77-19.45,15-19.45,15L394.42,449Z" class="cls-16"></path><path d="M454.24,446.27s-3.74-12.89-16.32-12.06,14.47-3.38,22.77,6.77,7.89-16.28-.2-13.21,16.67-9.8,16.11,12.71,8.55-7.62,15.89-7.09.49,11-2.18,18.44,26.4.88,21.05-12.16,7.2-16.65,17.42,7.35c.06,4.23-.2-18.9,13.09-27.64s23.28-.35,23.28-.35-30.66,5.86-22.82,31c23.31,1.8,31.08-19,23-20.69s16.67-4.58,19,16.85,6-9.52,27.15-14.59c-11,17.56-19.91,19.71-11.11,31.73,5-4.19,23.28-26.12,23.28-26.12l15.52,11.37s9.87-8.34-.26-17.39c15.61-.24,22.63,18.28,16.15,28.68,14.36-.21,7.6-40.05,20.79-42.5.2,13.26-17.18,29.09-3.89,36.24s30-28.09,21.69-36.51c25.74,19.45,26,34.16,26,34.16s28.17-16.59,12.67-27.58C744,429.61,748.57,448,748.57,448l15.55,8.8" class="cls-16"></path><path d="M276.89,485.74s-7.61,18.77-14.21,17.62,15.5,8.15,23.34-14.14,10.19,10.59,10.19,10.59l9.41-7.31s13.36-4.29,8.95,10.08,16.09-15.85,16.09-15.85,14.24,1.32,9.21,15.47S350,480.59,350,480.59l9.08,25.2s-4.28-1.28-.3-20.08c0,0,5.07,18.38,16.46,20.05-10.67-7.72-.21-14-.21-14s15,1.21,20.24,13.74,8.83-22.23,8.83-22.23,15.33,15.66,13.12,27.8,12.51-24.3,12.51-24.3,5.27,8.51,6,18.12,17-20.55,17-20.55-24.63,31.38-13.61,28.87,30.46-22.87,30.46-22.87-14.11,24.48-7.81,22.29,21.05-17,21.05-17l27.71,23.12-10.77-28.9s34.43,4.93,27.51,19.53-10.56,2.39-10.56,2.39,2,22.32,21.29-8.44c0,0,13.17,19.84,21.33,15.71-2.6-8.29-4.68-23.1-4.68-23.1s14.5,17.74,27.13,17.55c-4.17-7.13-18.7-14.14-8.69-24.74C585.2,498.52,594.89,506,594.89,506l-5.1-14.46s14.82-11.07,18.05,0-6.5,18.95-6.5,18.95,14,2,18.56-12.49,9.72,14.76,9.72,14.76l7.63-15.43,14.91,10.16,3.29-9.72s9.95,8.46,14.48,7.2,3.82-8.19,3.82-8.19l-8.31,4.62-5-14s12.94-6.45,16.46,4.27S687.25,479,687.25,479l.38,25.62,14.7-17.79s5.59,13.73-2.1,20c20-10.28,19.95-16.92,19.95-16.92s10.37,3.16,3.39,16.57,19.53-1.41,22.34-20.28" class="cls-16"></path></g></g></g></svg>